<svg xmlns="http://www.w3.org/2000/svg" viewBox="0 0 219.17 130"><defs><style>.cls-1{fill:#52ff6b;}</style></defs><g id="Layer_2" data-name="Layer 2"><g id="Layer_1-2" data-name="Layer 1"><polygon class="cls-1" points="68.76 86.91 39.4 86.91 48.94 39.26 45.23 39.26 35.02 90.27 68.03 90.27 68.76 86.91"/><polygon class="cls-1" points="90.03 46.38 104.46 83.49 106.28 83.49 134.5 46.91 125.81 90.27 129.46 90.27 139.66 39.26 136.38 39.26 106.13 78.67 90.91 39.26 87.85 39.26 77.65 90.27 81.29 90.27 90.03 46.38"/><path class="cls-1" d="M159.88,23.83H23.77L0,65l23.77,41.17H145.24l16.47-82.34Zm-17.1,79.34H25.5L3.46,65l22-38.17H158.05Z"/><path class="cls-1" d="M195.4,23.83H177.64L182.4,0h-4.08l-26,130h4.08l4.77-23.83H195.4L219.17,65Zm-1.73,79.34h-31.9L177,26.83h16.63l22,38.17Z"/></g></g></svg>